<?xml version="1.0" encoding="UTF-8" standalone="no"?>
<!-- Created with Inkscape (http://www.inkscape.org/) -->

<svg
   xmlns:dc="http://purl.org/dc/elements/1.1/"
   xmlns:cc="http://creativecommons.org/ns#"
   xmlns:rdf="http://www.w3.org/1999/02/22-rdf-syntax-ns#"
   xmlns:svg="http://www.w3.org/2000/svg"
   xmlns="http://www.w3.org/2000/svg"
   xmlns:sodipodi="http://sodipodi.sourceforge.net/DTD/sodipodi-0.dtd"
   xmlns:inkscape="http://www.inkscape.org/namespaces/inkscape"
   width="100.14915mm"
   height="21.11491mm"
   viewBox="0 0 160.23864 33.783856"
   version="1.1"
   id="svg8"
   inkscape:version="0.92.3 (2405546, 2018-03-11)"
   sodipodi:docname="algoric_white.svg">
  <defs
     id="defs2" />
  <sodipodi:namedview
     id="base"
     pagecolor="#ffffff"
     bordercolor="#666666"
     borderopacity="1.0"
     inkscape:pageopacity="0.0"
     inkscape:pageshadow="2"
     inkscape:zoom="1.6496183"
     inkscape:cx="248.48563"
     inkscape:cy="56.052446"
     inkscape:document-units="mm"
     inkscape:current-layer="layer1"
     showgrid="false"
     inkscape:window-width="1920"
     inkscape:window-height="986"
     inkscape:window-x="-11"
     inkscape:window-y="-11"
     inkscape:window-maximized="1"
     fit-margin-top="0"
     fit-margin-left="0"
     fit-margin-right="0"
     fit-margin-bottom="0"
     scale-x="1.6" />
  <metadata
     id="metadata5">
    <rdf:RDF>
      <cc:Work
         rdf:about="">
        <dc:format>image/svg+xml</dc:format>
        <dc:type
           rdf:resource="http://purl.org/dc/dcmitype/StillImage" />
        <dc:title></dc:title>
      </cc:Work>
    </rdf:RDF>
  </metadata>
  <g
     inkscape:label="Layer 1"
     inkscape:groupmode="layer"
     id="layer1"
     transform="translate(153.09287,-31.687689)">
    <g
       id="Calque_4"
       transform="matrix(0.19102187,0,0,0.19102187,-165.08904,-11.27313)"
       style="fill:#ffffff">
      <g
         id="g51"
         style="fill:#ffffff">
        <g
           aria-label="lgoric"
           transform="translate(261.9265,365.1952)"
           style="font-size:175.77890015px;font-family:CinzelDecorative-Regular;letter-spacing:33;fill:#ffffff"
           id="text29">
          <path
             d="M 16.565101,-133.55077 H 32.357737 V 0 H 16.565101 Z"
             style="font-size:175.77890015px;font-family:CinzelDecorative-Regular;letter-spacing:33;fill:#ffffff"
             id="path832"
             inkscape:connector-curvature="0" />
          <path
             d="m 161.57265,-49.180327 q 0,-17.165908 -7.12385,-26.607158 -7.03803,-9.441249 -19.82663,-9.441249 -12.70277,0 -19.82662,9.441249 -7.03802,9.44125 -7.03802,26.607158 0,17.080079 7.03802,26.521328 7.12385,9.44125 19.82662,9.44125 12.7886,0 19.82663,-9.44125 7.12385,-9.441249 7.12385,-26.521328 z m 15.79263,37.250021 q 0,24.547249 -10.90035,36.477555 -10.90035,12.016136 -33.38769,12.016136 -8.32546,0 -15.70681,-1.287444 -7.38134,-1.201613 -14.33353,-3.776499 V 16.135954 q 6.95219,3.7765 13.73273,5.57892 6.78053,1.80242 13.81855,1.80242 15.53515,0 23.25981,-8.153806 7.72466,-8.067977 7.72466,-24.4614194 V -16.90842 Q 156.68036,-8.411295 149.04154,-4.2056475 141.40271,0 130.75984,0 113.07896,0 102.26444,-13.475238 91.449913,-26.950476 91.449913,-49.180327 q 0,-22.315681 10.814527,-35.790919 10.81452,-13.475238 28.4954,-13.475238 10.64287,0 18.2817,4.205648 7.63882,4.205647 12.53111,12.702772 v -14.591022 h 15.79263 z"
             style="font-size:175.77890015px;font-family:CinzelDecorative-Regular;letter-spacing:33;fill:#ffffff"
             id="path834"
             inkscape:connector-curvature="0" />
          <path
             d="m 280.1447,-85.057075 q -12.70278,0 -20.08412,9.956227 -7.38134,9.870397 -7.38134,27.122135 0,17.251737 7.29551,27.207964 7.38135,9.870397 20.16995,9.870397 12.61694,0 19.99828,-9.956226 7.38134,-9.956227 7.38134,-27.122135 0,-17.080079 -7.38134,-27.036306 -7.38134,-10.042056 -19.99828,-10.042056 z m 0,-13.389409 q 20.59909,0 32.35773,13.389409 11.75865,13.389408 11.75865,37.078362 0,23.603123 -11.75865,37.078361 -11.75864,13.3894087 -32.35773,13.3894087 -20.68492,0 -32.44357,-13.3894087 -11.67282,-13.475238 -11.67282,-37.078361 0,-23.688954 11.67282,-37.078362 11.75865,-13.389409 32.44357,-13.389409 z"
             style="font-size:175.77890015px;font-family:CinzelDecorative-Regular;letter-spacing:33;fill:#ffffff"
             id="path836"
             inkscape:connector-curvature="0" />
          <path
             d="m 439.05665,-81.366405 q -2.66071,-1.544932 -5.83641,-2.231568 -3.08986,-0.772466 -6.86636,-0.772466 -13.38941,0 -20.59909,8.754613 -7.12385,8.668784 -7.12385,24.976397 V 0 h -15.87847 v -96.129086 h 15.87847 v 14.93434 q 4.97811,-8.754613 12.96026,-12.960261 7.98215,-4.291477 19.39747,-4.291477 1.63077,0 3.60484,0.257489 1.97408,0.171659 4.37731,0.600807 z"
             style="font-size:175.77890015px;font-family:CinzelDecorative-Regular;letter-spacing:33;fill:#ffffff"
             id="path838"
             inkscape:connector-curvature="0" />
          <path
             d="m 488.7934,-96.129086 h 15.79264 V 0 H 488.7934 Z m 0,-37.421684 h 15.79264 v 19.99829 H 488.7934 Z"
             style="font-size:175.77890015px;font-family:CinzelDecorative-Regular;letter-spacing:33;fill:#ffffff"
             id="path840"
             inkscape:connector-curvature="0" />
          <path
             d="m 639.7232,-92.438416 v 14.762681 q -6.6947,-3.69067 -13.47523,-5.49309 -6.69471,-1.88825 -13.56107,-1.88825 -15.36349,0 -23.86061,9.784567 -8.49713,9.698739 -8.49713,27.293795 0,17.595055 8.49713,27.379623 8.49712,9.698738 23.86061,9.698738 6.86636,0 13.56107,-1.80242 6.78053,-1.88825 13.47523,-5.57892 v 14.5910217 q -6.60887,3.08986351 -13.73272,4.63479525 -7.03803,1.54493175 -15.02017,1.54493175 -21.71488,0 -34.50348,-13.6468967 -12.7886,-13.646897 -12.7886,-36.820873 0,-23.517295 12.87443,-36.992533 12.96026,-13.475238 35.4476,-13.475238 7.29551,0 14.24771,1.544932 6.95219,1.459102 13.47523,4.463136 z"
             style="font-size:175.77890015px;font-family:CinzelDecorative-Regular;letter-spacing:33;fill:#ffffff"
             id="path842"
             inkscape:connector-curvature="0" />
        </g>
        <g
           id="g49"
           style="fill:#ffffff">
          <path
             d="m 195.6,329.4 c 4,3.7 7.6,7.6 10.8,12.1 4.1,5.9 7.5,12.2 9.8,19 l 0.5,1.4 -1.4,0.3 c -4.6,1 -9.4,1.4 -14.1,1.4 -2.1,0 -4.3,-0.2 -6.3,-0.3 -2.9,3.3 -6,6.3 -9.5,9 10.8,2.1 21.7,2.1 32.5,-0.2 3.8,-0.8 7.6,-1.7 11.3,-3.2 -0.8,-3.8 -1.7,-7.6 -3,-11.3 -3.8,-11.4 -10.3,-22.2 -18.6,-30.9 -4.1,-4.3 -8.7,-8.3 -13.6,-11.7 -5.4,-3.8 -11.4,-7 -17.6,-9.4 -0.6,3.5 -1.6,6.8 -2.5,10.2 7.9,3.2 15.2,7.7 21.7,13.6 z"
             id="path31"
             inkscape:connector-curvature="0"
             style="fill:#ffffff" />
          <path
             d="m 195.5,332.7 c -2.2,10.3 -7.8,19.8 -15.7,27 -4.1,3.7 -8.7,6.7 -13.8,8.9 -6.3,2.7 -13,4.1 -20,4.1 -6.8,0 -13.3,-1.3 -19.5,-4 -4.4,2.1 -9,3.7 -13.8,4.8 10,6.5 21.4,9.8 33.3,9.8 12.9,0 25.2,-4 35.7,-11.4 4.3,-3.2 8.3,-6.8 11.7,-11 4.6,-5.6 8.3,-11.9 10.6,-18.7 -2.5,-3.3 -5.3,-6.5 -8.5,-9.5 z"
             id="path33"
             inkscape:connector-curvature="0"
             style="fill:#ffffff" />
          <path
             d="m 136.6,347.6 c -7,5.4 -14.8,9.5 -23.2,12.2 -5.1,1.6 -10.3,2.7 -15.6,3.2 -2.4,0.2 -4.6,0.3 -7,0.3 -4.8,0 -9.4,-0.5 -14.1,-1.4 l -1.4,-0.3 0.5,-1.4 c 2.2,-6.7 5.4,-12.9 9.5,-18.6 -1.4,-4.3 -2.4,-8.6 -2.9,-13.2 -7.5,8.4 -13.2,18.3 -16.7,28.9 -1.3,3.7 -2.2,7.5 -2.9,11.3 3.7,1.3 7.5,2.4 11.3,3.2 11.7,2.4 23.5,2.2 35.2,-0.3 5.7,-1.3 11.3,-3.2 16.7,-5.6 6.5,-3 12.5,-6.7 18.1,-11.1 -2.6,-2.1 -5.1,-4.5 -7.5,-7.2 z"
             id="path35"
             inkscape:connector-curvature="0"
             style="fill:#ffffff" />
          <path
             d="m 145,337.8 c -3,-3.5 -5.9,-7.5 -8.3,-11.6 -2.2,-3.8 -4,-7.8 -5.6,-11.9 -3.5,0.6 -6.8,1.7 -10,2.9 1.7,4.9 4,9.7 6.5,14.3 2.9,4.9 6.2,9.5 9.8,13.6 2.9,3.2 5.9,6.2 9.2,8.9 5.7,4.8 11.9,8.7 18.7,11.9 4,-1.7 7.6,-4 11,-6.7 -7.9,-2.9 -15.4,-6.8 -22.1,-12.2 -3.2,-2.7 -6.3,-5.9 -9.2,-9.2 z"
             id="path37"
             inkscape:connector-curvature="0"
             style="fill:#ffffff" />
          <path
             d="m 96,330.5 c -0.5,-2.7 -0.8,-5.7 -0.8,-8.6 0,-2.7 0.2,-5.6 0.6,-8.1 2.1,-12.4 8.4,-23.5 18.3,-31.4 0.3,-4.9 1.3,-9.7 2.4,-14.4 -19.5,10.6 -32.1,31.6 -32.1,54 0,1.4 0,2.7 0.2,3.8 0.3,5.4 1.4,10.8 3.2,16 2.4,6.8 5.9,13.2 10.5,18.7 4.3,-0.5 8.4,-1.3 12.4,-2.4 C 103,350.6 97.9,340.9 96,330.5 Z"
             id="path39"
             inkscape:connector-curvature="0"
             style="fill:#ffffff" />
          <path
             d="m 131.8,311.6 c 8.9,-1.7 18.4,-1.7 27.3,-0.2 1.1,-3.3 1.9,-6.7 2.5,-10 -10.6,-1.9 -21.9,-1.9 -32.4,0.2 -4.1,0.8 -8.3,2.1 -12.2,3.5 -6.5,2.4 -12.9,5.6 -18.6,9.5 -0.3,2.4 -0.5,4.8 -0.5,7.1 0,2.1 0.2,4 0.3,5.9 6.3,-5.4 13.3,-9.5 21.1,-12.5 4,-1.5 8.3,-2.6 12.5,-3.5 z"
             id="path41"
             inkscape:connector-curvature="0"
             style="fill:#ffffff" />
          <path
             d="m 164.2,300.6 c -0.6,4.3 -1.7,8.6 -3.2,12.7 -1.6,4.4 -3.5,8.9 -5.9,13 -2.2,3.8 -4.8,7.5 -7.6,10.8 2.4,2.5 4.8,5.1 7.5,7.1 3.3,-4 6.3,-8.3 9,-12.7 2.9,-4.9 5.2,-10 7,-15.4 1.4,-4 2.4,-8.1 3.2,-12.4 1.1,-6.5 1.6,-13.3 1.1,-20 -3.5,-2.7 -7.1,-4.8 -11.1,-6.3 1.3,7.7 1.3,15.5 0,23.2 z"
             id="path43"
             inkscape:connector-curvature="0"
             style="fill:#ffffff" />
          <path
             d="m 172.9,266.5 c -4.8,-2.4 -10,-4.1 -15.2,-5.1 -7.5,-1.4 -15.4,-1.4 -22.7,-0.2 -1.6,4 -2.9,7.9 -3.8,12.1 10.3,-3.2 21.7,-2.9 31.9,0.6 5.1,1.9 10,4.4 14.3,7.9 l -0.8,1 v 0 l 0.8,-1 c 9.8,7.8 16.5,18.9 18.6,31.3 4.1,2.9 7.9,6.2 11.4,9.7 0,-0.3 0,-0.6 0,-1 0.1,-23.7 -13.2,-44.8 -34.5,-55.3 z"
             id="path45"
             inkscape:connector-curvature="0"
             style="fill:#ffffff" />
          <path
             d="m 128.2,275.1 c 1,-5.2 2.5,-10.3 4.8,-15.2 3,-7.1 7.1,-13.6 12.2,-19.4 l 1,-1.1 1,1.1 c 4.9,5.6 8.9,11.9 11.9,18.7 4.3,0.8 8.6,2.2 12.5,4 -3.5,-11.1 -9.4,-21.4 -17,-30 -2.5,-2.9 -5.4,-5.7 -8.4,-8.3 -3,2.5 -5.7,5.2 -8.3,8.3 -8.3,9.4 -14.4,20.6 -17.9,32.7 -1.6,5.6 -2.7,11.4 -3,17.3 -0.5,6.3 -0.2,12.9 0.8,19.2 3.3,-1.1 6.7,-2.1 10,-2.9 -1.4,-8.2 -1.2,-16.3 0.4,-24.4 z"
             id="path47"
             inkscape:connector-curvature="0"
             style="fill:#ffffff" />
        </g>
      </g>
    </g>
  </g>
</svg>
